<?xml version="1.0" standalone="no"?><!DOCTYPE svg PUBLIC "-//W3C//DTD SVG 1.1//EN" "http://www.w3.org/Graphics/SVG/1.1/DTD/svg11.dtd"><svg t="1770366957271" class="icon" viewBox="0 0 1024 1024" version="1.1" xmlns="http://www.w3.org/2000/svg" p-id="18220" xmlns:xlink="http://www.w3.org/1999/xlink" width="200" height="200"><path d="M708.928 96C767.248 96 816 139.68 816 195.28v527.84c0 53.76-45.712 96.672-102.768 99.2l-4.272 0.08H203.072C144.752 822.4 96 778.72 96 723.12v-527.84C96 139.68 144.752 96 203.072 96h505.856z m0 76.8H203.072c-16.64 0-28.848 10.944-28.848 22.48v527.84c0 11.52 12.208 22.48 28.848 22.48h504.992l2.512-0.032c15.856-0.704 27.2-11.36 27.2-22.464V195.28c0-11.52-12.208-22.48-28.848-22.48z" fill="#ab3aea" p-id="18221"></path><path d="M893.84 192c18.88 0 34.16 15.136 34.16 33.808v591.2C928 878.192 877.696 928 815.84 928H370.176A33.984 33.984 0 0 1 336 894.192c0-18.656 15.296-33.792 34.16-33.792H815.84c24.16 0 43.84-19.472 43.84-43.408v-591.2c0-18.656 15.28-33.792 34.144-33.792zM553.408 250.368c17.44 0 30.592 15.744 30.592 34.112 0 18.4-13.136 34.128-30.592 34.128H281.792c-17.456 0-30.592-15.744-30.592-34.128 0-18.368 13.136-34.112 30.592-34.112h271.616z" fill="#ab3aea" p-id="18222"></path><path d="M629.952 422.4c17.552 0 30.848 15.712 30.848 34.112 0 18.416-13.28 34.128-30.848 34.128H282.048c-17.552 0-30.848-15.712-30.848-34.128 0-18.4 13.28-34.112 30.848-34.112h347.904zM629.952 601.6c17.552 0 30.848 15.712 30.848 34.112 0 18.416-13.28 34.128-30.848 34.128H282.048c-17.552 0-30.848-15.712-30.848-34.128 0-18.4 13.28-34.112 30.848-34.112h347.904z" fill="#ab3aea" p-id="18223"></path></svg>